<?xml version="1.0" encoding="UTF-8"?>
<svg version="1.1" xmlns="http://www.w3.org/2000/svg" width="200" height="200">
<path d="M0 0 C2.875 2.25 2.875 2.25 5 5 C5 6.32 5 7.64 5 9 C7.64 9 10.28 9 13 9 C13.495 10.98 13.495 10.98 14 13 C14.66 13 15.32 13 16 13 C16.309375 12.0409375 16.309375 12.0409375 16.625 11.0625 C18 9 18 9 21.125 8.25 C22.07375 8.1675 23.0225 8.085 24 8 C24.495 8.99 24.495 8.99 25 10 C23.77072044 12.08031926 22.36032972 13.98043264 20.93359375 15.9296875 C19.72061785 17.98163642 19.72061785 17.98163642 20.74609375 20.09765625 C21.15988281 20.72542969 21.57367188 21.35320312 22 22 C25 26.73076923 25 26.73076923 25 30 C22.69 29.67 20.38 29.34 18 29 C17.505 27.515 17.505 27.515 17 26 C16.01 26 15.02 26 14 26 C13.01 27.485 13.01 27.485 12 29 C9.72265625 29.546875 9.72265625 29.546875 7.0625 29.75 C6.18722656 29.82734375 5.31195313 29.9046875 4.41015625 29.984375 C2 30 2 30 -1 29 C-1.495 23.555 -1.495 23.555 -2 18 C-3.485 17.505 -3.485 17.505 -5 17 C-4.98839844 17.85464844 -4.97679687 18.70929688 -4.96484375 19.58984375 C-4.95582031 20.69457031 -4.94679688 21.79929687 -4.9375 22.9375 C-4.92589844 24.03964844 -4.91429687 25.14179687 -4.90234375 26.27734375 C-5 29 -5 29 -6 30 C-8.5 30.125 -8.5 30.125 -11 30 C-13.12579497 27.87420503 -12.44671369 23.34787605 -12.62109375 20.46875 C-12.74613281 19.6540625 -12.87117188 18.839375 -13 18 C-13.66 17.67 -14.32 17.34 -15 17 C-14.773125 17.515625 -14.54625 18.03125 -14.3125 18.5625 C-13.83300611 22.30255235 -15.29751046 24.71662731 -17 28 C-20.14611253 30.09740836 -20.91188078 30.25328219 -24.5 30.1875 C-25.2734375 30.18105469 -26.046875 30.17460938 -26.84375 30.16796875 C-29 30 -29 30 -32 29 C-33.35817575 21.59176863 -33.35817575 21.59176863 -31.5625 18.625 C-31.046875 18.08875 -30.53125 17.5525 -30 17 C-30 16.34 -30 15.68 -30 15 C-32.31 15 -34.62 15 -37 15 C-37.495 14.01 -37.495 14.01 -38 13 C-38.99 13.33 -39.98 13.66 -41 14 C-41 18.62 -41 23.24 -41 28 C-43.97 28.495 -43.97 28.495 -47 29 C-47.33 28.67 -47.66 28.34 -48 28 C-48.2475 28.94875 -48.495 29.8975 -48.75 30.875 C-50 34 -50 34 -51.625 35.375 C-56.1349399 36.56182629 -60.55557786 36.48147405 -65 35 C-65.30164063 34.35933594 -65.60328125 33.71867187 -65.9140625 33.05859375 C-67.33016782 30.37410633 -68.56245249 30.07632526 -71.375 29.0625 C-75.45657858 27.36293593 -77.81396227 26.00773583 -80 22 C-81.49243429 15.83127159 -81.04091815 12.5388152 -78 7 C-75.80941441 4.1124099 -73.49386383 2.93169702 -70 2 C-65.78125656 1.91442711 -62.73548351 2.5774882 -59.0625 4.6875 C-56.58536967 7.46488855 -56.24982237 9.33593864 -56 13 C-57.98 13 -59.96 13 -62 13 C-62.33 12.01 -62.66 11.02 -63 10 C-65.97 10 -68.94 10 -72 10 C-72.76173392 14.3164922 -73.16063604 17.74433453 -72 22 C-68.6675213 22.33417929 -68.6675213 22.33417929 -65 22 C-63.62689293 20.70766393 -62.28965176 19.37562854 -61 18 C-58.25 17.75 -58.25 17.75 -56 18 C-55.38471234 23.07612318 -57.38341651 25.82982006 -60 30 C-58.35 30 -56.7 30 -55 30 C-55.02320312 29.11957031 -55.04640625 28.23914063 -55.0703125 27.33203125 C-55.09738281 25.58986328 -55.09738281 25.58986328 -55.125 23.8125 C-55.14820312 22.66394531 -55.17140625 21.51539062 -55.1953125 20.33203125 C-55.00484152 17.08259628 -54.39360127 14.91339479 -53 12 C-50 13 -50 13 -49 15 C-48.566875 13.88625 -48.13375 12.7725 -47.6875 11.625 C-46 8 -46 8 -43 6 C-38.01114768 5.53806923 -35.01119752 5.93261366 -31 9 C-30.505 9.99 -30.505 9.99 -30 11 C-29.4740625 10.2884375 -29.4740625 10.2884375 -28.9375 9.5625 C-26.04394157 7.22898513 -23.6666057 7.12643468 -20 7 C-17.05244268 8.34562399 -15.45722728 9.08554544 -14 12 C-13.34 12 -12.68 12 -12 12 C-11.9071875 10.14375 -11.9071875 10.14375 -11.8125 8.25 C-11.390722 4.94607237 -11.10472781 4.11968892 -8.8125 1.5 C-5.43811338 -0.29967286 -3.76576372 -0.7060807 0 0 Z M-4 7 C-4.33 8.65 -4.66 10.3 -5 12 C-3.68 12.33 -2.36 12.66 -1 13 C-1 11.35 -1 9.7 -1 8 C-1.99 7.67 -2.98 7.34 -4 7 Z M5 10 C5 14.95 5 19.9 5 25 C5.99 25.495 5.99 25.495 7 26 C9.2371888 23.31180732 9.2371888 23.31180732 11 20 C10.1457352 15.62189288 7.89935849 13.62419811 5 10 Z M-23 13 C-23.33 13.99 -23.66 14.98 -24 16 C-23.01 16 -22.02 16 -21 16 C-21.33 15.01 -21.66 14.02 -22 13 C-22.33 13 -22.66 13 -23 13 Z M-25 22 C-25 22.66 -25 23.32 -25 24 C-24.01 23.67 -23.02 23.34 -22 23 C-22.99 22.67 -23.98 22.34 -25 22 Z " fill="#2E7BC4" transform="translate(175,81)"/>
<path d="M0 0 C2.64 0 5.28 0 8 0 C8.33 1.65 8.66 3.3 9 5 C9.928125 5.020625 10.85625 5.04125 11.8125 5.0625 C15 6 15 6 16.06640625 7.625 C16.79974771 9.38218533 17.40775925 11.19037549 18 13 C18.99 10.69 19.98 8.38 21 6 C22.0725 6.061875 23.145 6.12375 24.25 6.1875 C27.91104328 6.37093735 27.91104328 6.37093735 29.875 4.5 C32.83559185 2.41017046 35.24177451 2.46053711 38.8046875 2.578125 C42.40048775 3.26913288 43.94783773 5.08725356 46 8 C46 9.32 46 10.64 46 12 C42.28400809 12.20086443 41.22791555 12.1519437 38 10 C37.01 10.33 36.02 10.66 35 11 C35.69867188 11.19335938 36.39734375 11.38671875 37.1171875 11.5859375 C38.02726562 11.84632812 38.93734375 12.10671875 39.875 12.375 C40.77992187 12.63023438 41.68484375 12.88546875 42.6171875 13.1484375 C45 14 45 14 47 16 C47.375 18.875 47.375 18.875 47 22 C44.76793569 24.84780619 43.45007001 25.84997666 40 27 C35.9197061 27.37780499 33.6953352 27.40813153 30.125 25.3125 C27.80371652 22.78639739 27.28102914 21.37234971 27 18 C29.875 17.875 29.875 17.875 33 18 C33.66 18.66 34.32 19.32 35 20 C37.10820797 19.6814823 37.10820797 19.6814823 39 19 C37.84371094 18.61908203 37.84371094 18.61908203 36.6640625 18.23046875 C35.66117188 17.88628906 34.65828125 17.54210937 33.625 17.1875 C32.62726562 16.85105469 31.62953125 16.51460937 30.6015625 16.16796875 C28 15 28 15 26 12 C25.76812988 12.63091553 25.53625977 13.26183105 25.29736328 13.91186523 C24.24724852 16.75651645 23.18628616 19.5969988 22.125 22.4375 C21.76019531 23.43072266 21.39539062 24.42394531 21.01953125 25.44726562 C20.66503906 26.39150391 20.31054688 27.33574219 19.9453125 28.30859375 C19.62062988 29.18314209 19.29594727 30.05769043 18.96142578 30.95874023 C18 33 18 33 16 34 C14.33380554 34.0396713 12.66608987 34.04384447 11 34 C11.144375 33.154375 11.28875 32.30875 11.4375 31.4375 C11.623125 30.303125 11.80875 29.16875 12 28 C12.268125 26.9275 12.53625 25.855 12.8125 24.75 C13.08112007 19.37759863 11.20642911 15.88088863 9 11 C8.67 15.95 8.34 20.9 8 26 C6.02 26 4.04 26 2 26 C1.67 24.02 1.34 22.04 1 20 C0.01 21.98 -0.98 23.96 -2 26 C-4.64 26 -7.28 26 -10 26 C-10.66 24.68 -11.32 23.36 -12 22 C-12.33 23.32 -12.66 24.64 -13 26 C-14.98 26 -16.96 26 -19 26 C-19 17.75 -19 9.5 -19 1 C-16.69 1.33 -14.38 1.66 -12 2 C-10.22265625 4.6171875 -10.22265625 4.6171875 -9.0625 7.875 C-8.66160156 8.94492188 -8.26070312 10.01484375 -7.84765625 11.1171875 C-7 14 -7 14 -7 17 C-6.34 17 -5.68 17 -5 17 C-4.87753906 16.30519531 -4.75507813 15.61039063 -4.62890625 14.89453125 C-3.9414143 11.73036021 -2.98142199 8.75191616 -1.9375 5.6875 C-1.57527344 4.61886719 -1.21304687 3.55023438 -0.83984375 2.44921875 C-0.56269531 1.64097656 -0.28554688 0.83273438 0 0 Z " fill="#2E6CCF" transform="translate(19,84)"/>
<path d="M0 0 C2.47713033 2.77738855 2.81267763 4.64843864 3.0625 8.3125 C1.0825 8.3125 -0.8975 8.3125 -2.9375 8.3125 C-3.2675 7.3225 -3.5975 6.3325 -3.9375 5.3125 C-6.9075 5.3125 -9.8775 5.3125 -12.9375 5.3125 C-13.69923392 9.6289922 -14.09813604 13.05683453 -12.9375 17.3125 C-9.6050213 17.64667929 -9.6050213 17.64667929 -5.9375 17.3125 C-4.56439293 16.02016393 -3.22715176 14.68812854 -1.9375 13.3125 C0.8125 13.0625 0.8125 13.0625 3.0625 13.3125 C3.67778766 18.38862318 1.67908349 21.14232006 -0.9375 25.3125 C0.7125 25.3125 2.3625 25.3125 4.0625 25.3125 C4.03929688 24.43207031 4.01609375 23.55164063 3.9921875 22.64453125 C3.96511719 20.90236328 3.96511719 20.90236328 3.9375 19.125 C3.91429688 17.97644531 3.89109375 16.82789062 3.8671875 15.64453125 C4.05765848 12.39509628 4.66889873 10.22589479 6.0625 7.3125 C9.0625 8.3125 9.0625 8.3125 10.0625 10.3125 C10.7225 8.9925 11.3825 7.6725 12.0625 6.3125 C12.5575 9.2825 12.5575 9.2825 13.0625 12.3125 C14.3825 11.6525 15.7025 10.9925 17.0625 10.3125 C17.5575 16.7475 17.5575 16.7475 18.0625 23.3125 C15.0925 23.8075 15.0925 23.8075 12.0625 24.3125 C11.7325 23.9825 11.4025 23.6525 11.0625 23.3125 C10.815 24.26125 10.5675 25.21 10.3125 26.1875 C9.0625 29.3125 9.0625 29.3125 7.4375 30.6875 C2.9275601 31.87432629 -1.49307786 31.79397405 -5.9375 30.3125 C-6.23914063 29.67183594 -6.54078125 29.03117187 -6.8515625 28.37109375 C-8.26766782 25.68660633 -9.49995249 25.38882526 -12.3125 24.375 C-16.39407858 22.67543593 -18.75146227 21.32023583 -20.9375 17.3125 C-22.42993429 11.14377159 -21.97841815 7.8513152 -18.9375 2.3125 C-14.10042991 -4.06363784 -6.3885634 -3.67002579 0 0 Z " fill="#2C4ED4" transform="translate(115.9375,85.6875)"/>
<path d="M0 0 C0.66 0.33 1.32 0.66 2 1 C1.67 2.32 1.34 3.64 1 5 C2.27875 4.79375 3.5575 4.5875 4.875 4.375 C7.0546875 4.0234375 7.0546875 4.0234375 9 4 C11.68092691 6.68092691 11.38670257 8.39167363 11.625 12.125 C11.69976562 13.22070312 11.77453125 14.31640625 11.8515625 15.4453125 C11.90054688 16.28835937 11.94953125 17.13140625 12 18 C13.32 16.35 14.64 14.7 16 13 C14.55049545 9.2089881 12.84827434 5.6125362 11 2 C13.64 2 16.28 2 19 2 C19.33 3.32 19.66 4.64 20 6 C20.66 6 21.32 6 22 6 C22.309375 5.0409375 22.309375 5.0409375 22.625 4.0625 C24 2 24 2 27.125 1.25 C28.07375 1.1675 29.0225 1.085 30 1 C30.495 1.99 30.495 1.99 31 3 C29.77072044 5.08031926 28.36032972 6.98043264 26.93359375 8.9296875 C25.72061785 10.98163642 25.72061785 10.98163642 26.74609375 13.09765625 C27.15988281 13.72542969 27.57367188 14.35320312 28 15 C31 19.73076923 31 19.73076923 31 23 C28.69 22.67 26.38 22.34 24 22 C23.67 21.01 23.34 20.02 23 19 C22.01 19 21.02 19 20 19 C19.34 19.99 18.68 20.98 18 22 C15.72265625 22.546875 15.72265625 22.546875 13.0625 22.75 C12.18722656 22.82734375 11.31195313 22.9046875 10.41015625 22.984375 C8 23 8 23 5 22 C4.67 18.37 4.34 14.74 4 11 C3.01 10.67 2.02 10.34 1 10 C0.67 13.63 0.34 17.26 0 21 C-1.65 21 -3.3 21 -5 21 C-5 18.03 -5 15.06 -5 12 C-4.01 12 -3.02 12 -2 12 C-0.42726432 9.1575146 -0.42726432 9.1575146 0 6 C0 4 0 2 0 0 Z " fill="#4B6CC9" transform="translate(169,88)"/>
<path d="M0 0 C2.64 0 5.28 0 8 0 C8.16868683 4.38585753 8.05053352 7.15524966 6 11 C5.96021035 12.66619163 5.95629918 14.33390636 6 16 C4.4176994 16.33820166 2.83410625 16.67035939 1.25 17 C0.36828125 17.185625 -0.5134375 17.37125 -1.421875 17.5625 C-4 18 -4 18 -8 18 C-8.33 17.01 -8.66 16.02 -9 15 C-12.3 14.34 -15.6 13.68 -19 13 C-19 9.04 -19 5.08 -19 1 C-14.533192 0.64966212 -14.533192 0.64966212 -12 2 C-9.25026891 6.58742267 -7 11.60414831 -7 17 C-6.34 17 -5.68 17 -5 17 C-4.87753906 16.30519531 -4.75507813 15.61039063 -4.62890625 14.89453125 C-3.9414143 11.73036021 -2.98142199 8.75191616 -1.9375 5.6875 C-1.57527344 4.61886719 -1.21304687 3.55023438 -0.83984375 2.44921875 C-0.56269531 1.64097656 -0.28554688 0.83273438 0 0 Z " fill="#18A3E7" transform="translate(19,84)"/>
<path d="M0 0 C0.33 0 0.66 0 1 0 C1 4.95 1 9.9 1 15 C-0.98 15 -2.96 15 -5 15 C-5.33 13.02 -5.66 11.04 -6 9 C-6.99 10.98 -7.98 12.96 -9 15 C-11.64 15 -14.28 15 -17 15 C-17.66 13.68 -18.32 12.36 -19 11 C-19.33 12.32 -19.66 13.64 -20 15 C-21.98 15 -23.96 15 -26 15 C-26 10.71 -26 6.42 -26 2 C-22.7 2.33 -19.4 2.66 -16 3 C-15.67 4.32 -15.34 5.64 -15 7 C-14.15695312 6.77183594 -13.31390625 6.54367188 -12.4453125 6.30859375 C-11.34960938 6.02113281 -10.25390625 5.73367187 -9.125 5.4375 C-7.48917969 5.00244141 -7.48917969 5.00244141 -5.8203125 4.55859375 C-3 4 -3 4 -1 5 C-0.67 3.35 -0.34 1.7 0 0 Z " fill="#2647ED" transform="translate(26,95)"/>
<path d="M0 0 C0.53625 0.33 1.0725 0.66 1.625 1 C4.04111525 2.20687528 4.04111525 2.20687528 7.0625 1.9375 C10 2 10 2 11.875 3.5 C12.24625 3.995 12.6175 4.49 13 5 C12.67 5.99 12.34 6.98 12 8 C9.69 8 7.38 8 5 8 C5 14.27 5 20.54 5 27 C0 28 0 28 -2 27 C-2 20.73 -2 14.46 -2 8 C-4.97 7.505 -4.97 7.505 -8 7 C-8.33 5.35 -8.66 3.7 -9 2 C-6.03 2 -3.06 2 0 2 C0 1.34 0 0.68 0 0 Z " fill="#947047" transform="translate(73,83)"/>
<path d="M0 0 C0.99 0 1.98 0 3 0 C3 0.66 3 1.32 3 2 C4.32 2 5.64 2 7 2 C7 1.34 7 0.68 7 0 C14.14893617 0.59574468 14.14893617 0.59574468 17.5 2.1875 C19 4 19 4 19.5 6.9375 C18.89626588 10.63537148 17.93015471 11.73959494 15 14 C11.39427296 15.20190901 8.7897565 15.32670315 5 15 C1.67216884 13.0467078 0.28807128 11.97501049 -0.8125 8.25 C-0.874375 7.5075 -0.93625 6.765 -1 6 C1.875 5.875 1.875 5.875 5 6 C5.66 6.66 6.32 7.32 7 8 C8.32 7.67 9.64 7.34 11 7 C7.37 5.68 3.74 4.36 0 3 C0 2.01 0 1.02 0 0 Z " fill="#2742CB" transform="translate(47,96)"/>
<path d="M0 0 C1.65 0.33 3.3 0.66 5 1 C5.10815225 2.76949095 5.18566083 4.54087487 5.25 6.3125 C5.29640625 7.29863281 5.3428125 8.28476563 5.390625 9.30078125 C5 12 5 12 3.26953125 13.83984375 C0.74485997 15.13042442 -0.74844302 15.34523035 -3.5625 15.25 C-4.32691406 15.23453125 -5.09132812 15.2190625 -5.87890625 15.203125 C-8 15 -8 15 -11 14 C-12.25 6.375 -12.25 6.375 -10 3 C-6.52674819 1.8422494 -3.63932552 1.93133348 0 2 C0 1.34 0 0.68 0 0 Z M-4 7 C-4 7.66 -4 8.32 -4 9 C-3.01 8.67 -2.02 8.34 -1 8 C-1.99 7.67 -2.98 7.34 -4 7 Z " fill="#334DD9" transform="translate(154,96)"/>
<path d="M0 0 C2.47713033 2.77738855 2.81267763 4.64843864 3.0625 8.3125 C1.0825 8.3125 -0.8975 8.3125 -2.9375 8.3125 C-3.2675 7.3225 -3.5975 6.3325 -3.9375 5.3125 C-6.9075 5.3125 -9.8775 5.3125 -12.9375 5.3125 C-13.2675 6.3025 -13.5975 7.2925 -13.9375 8.3125 C-15.59822849 8.99382451 -17.265267 9.65992127 -18.9375 10.3125 C-19.5975 11.3025 -20.2575 12.2925 -20.9375 13.3125 C-22.30709468 10.19978483 -21.84744332 9.05583845 -20.6875 5.75 C-18.6967477 1.8395937 -17.48767888 0.1983165 -13.75 -1.9375 C-8.66323585 -3.29397044 -4.54503634 -2.61097832 0 0 Z " fill="#2B90CC" transform="translate(115.9375,85.6875)"/>
<path d="M0 0 C2.875 2 2.875 2 5 5 C5.40997788 7.80757007 5.24237846 10.13993414 5 13 C2.03 12.505 2.03 12.505 -1 12 C-1.33 10.68 -1.66 9.36 -2 8 C-3.32 7.67 -4.64 7.34 -6 7 C-5.5875 8.2375 -5.175 9.475 -4.75 10.75 C-4.19140625 12.953125 -4.19140625 12.953125 -4 15 C-5.6875 17.5 -5.6875 17.5 -8 19 C-8.99 19 -9.98 19 -11 19 C-11 18.01 -11 17.02 -11 16 C-11.66 16 -12.32 16 -13 16 C-13 15.01 -13 14.02 -13 13 C-12.34 12.67 -11.68 12.34 -11 12 C-10.39625208 9.46425873 -10.04218874 6.92544828 -9.66015625 4.34765625 C-8.28455152 -0.54428721 -4.38687876 -0.61416303 0 0 Z " fill="#11B2E4" transform="translate(175,81)"/>
<path d="M0 0 C3.55720568 0.75260952 5.11946806 2.5605706 7.16015625 5.45703125 C7.16015625 6.77703125 7.16015625 8.09703125 7.16015625 9.45703125 C3.44416434 9.65789568 2.3880718 9.60897495 -0.83984375 7.45703125 C-1.82984375 7.78703125 -2.81984375 8.11703125 -3.83984375 8.45703125 C-3.83984375 9.44703125 -3.83984375 10.43703125 -3.83984375 11.45703125 C-5.15984375 11.45703125 -6.47984375 11.45703125 -7.83984375 11.45703125 C-7.83984375 10.79703125 -7.83984375 10.13703125 -7.83984375 9.45703125 C-8.37609375 9.68390625 -8.91234375 9.91078125 -9.46484375 10.14453125 C-12.90066276 10.5966127 -14.89751069 9.1288114 -17.83984375 7.45703125 C-17.50984375 6.46703125 -17.17984375 5.47703125 -16.83984375 4.45703125 C-16.11796875 4.53953125 -15.39609375 4.62203125 -14.65234375 4.70703125 C-11.69181061 4.72525634 -11.69181061 4.72525634 -9.58984375 2.45703125 C-6.20086995 -0.00767697 -4.10751515 -0.18514676 0 0 Z " fill="#1F8CD1" transform="translate(57.83984375,86.54296875)"/>
<path d="M0 0 C0.33 0 0.66 0 1 0 C1.33 1.98 1.66 3.96 2 6 C3.32 5.34 4.64 4.68 6 4 C6.33 8.29 6.66 12.58 7 17 C5.02 17.33 3.04 17.66 1 18 C0.7525 17.360625 0.505 16.72125 0.25 16.0625 C-0.81562433 13.81258459 -0.81562433 13.81258459 -3.125 13.25 C-3.74375 13.1675 -4.3625 13.085 -5 13 C-5.66 14.32 -6.32 15.64 -7 17 C-7.05449838 15.27119018 -7.09301688 13.54187288 -7.125 11.8125 C-7.14820312 10.84957031 -7.17140625 9.88664062 -7.1953125 8.89453125 C-6.9913544 5.87187222 -6.26874632 3.73230015 -5 1 C-2 2 -2 2 -1 4 C-0.67 2.68 -0.34 1.36 0 0 Z " fill="#3652B4" transform="translate(127,92)"/>
<path d="M0 0 C1.5 1.3125 1.5 1.3125 3 3 C3 10 3 17 3 24 C1.02 24.33 -0.96 24.66 -3 25 C-3.08724706 21.5834948 -3.14047325 18.16727687 -3.1875 14.75 C-3.21263672 13.78191406 -3.23777344 12.81382813 -3.26367188 11.81640625 C-3.27333984 10.88183594 -3.28300781 9.94726562 -3.29296875 8.984375 C-3.3086792 8.12553711 -3.32438965 7.26669922 -3.34057617 6.38183594 C-2.93095949 3.51716184 -1.886136 2.14936836 0 0 Z " fill="#1D5FE2" transform="translate(90,86)"/>
<path d="M0 0 C1.34177018 0.67088509 2.67519866 1.35869929 4 2.0625 C5.93368221 3.14147796 5.93368221 3.14147796 8 3 C9.25260243 7.99540847 8.68225154 10.72188686 6.5625 15.375 C6.08941406 16.43460938 5.61632813 17.49421875 5.12890625 18.5859375 C4.75636719 19.38257812 4.38382813 20.17921875 4 21 C2.02 21 0.04 21 -2 21 C-1.51421457 17.87709365 -1.0013988 15.00419641 0 12 C0.15754704 10.04322445 0.15754704 10.04322445 0.125 8 C0.12757812 7.319375 0.13015625 6.63875 0.1328125 5.9375 C0.06631126 3.78125219 0.06631126 3.78125219 -1 1 C-0.67 0.67 -0.34 0.34 0 0 Z " fill="#2A41E6" transform="translate(32,97)"/>
<path d="M0 0 C0.78375 0.04125 1.5675 0.0825 2.375 0.125 C2.99028766 5.20112318 0.99158349 7.95482006 -1.625 12.125 C0.025 12.125 1.675 12.125 3.375 12.125 C4.035 10.145 4.695 8.165 5.375 6.125 C7.025 6.455 8.675 6.785 10.375 7.125 C10.14639942 8.58684058 9.89129608 10.04455419 9.625 11.5 C9.48578125 12.31210938 9.3465625 13.12421875 9.203125 13.9609375 C8.375 16.125 8.375 16.125 6.55078125 17.40234375 C2.16506131 18.85900118 -2.25036724 18.58321092 -6.625 17.125 C-6.625 16.465 -6.625 15.805 -6.625 15.125 C-2.665 15.125 1.295 15.125 5.375 15.125 C5.375 14.465 5.375 13.805 5.375 13.125 C4.26125 13.33125 3.1475 13.5375 2 13.75 C0.80375 13.87375 -0.3925 13.9975 -1.625 14.125 C-2.285 13.465 -2.945 12.805 -3.625 12.125 C-3.625 10.805 -3.625 9.485 -3.625 8.125 C-2.965 8.125 -2.305 8.125 -1.625 8.125 C-2.19844937 5.25775314 -2.4864515 4.2635485 -4.625 2.125 C-2.625 0.125 -2.625 0.125 0 0 Z " fill="#2A41D7" transform="translate(116.625,98.875)"/>
<path d="M0 0 C-0.61754259 1.31602523 -1.24428742 2.62773556 -1.875 3.9375 C-2.22304687 4.66839844 -2.57109375 5.39929688 -2.9296875 6.15234375 C-4 8 -4 8 -6 9 C-6 8.34 -6 7.68 -6 7 C-8.97 7.66 -11.94 8.32 -15 9 C-15.83603378 7.68921847 -16.6687574 6.37632511 -17.5 5.0625 C-17.9640625 4.33160156 -18.428125 3.60070312 -18.90625 2.84765625 C-20 1 -20 1 -20 0 C-17.36 0 -14.72 0 -12 0 C-11.67 1.32 -11.34 2.64 -11 4 C-10.34 4 -9.68 4 -9 4 C-8.71125 3.360625 -8.4225 2.72125 -8.125 2.0625 C-6.00428289 -1.82548136 -3.86823244 -0.91616031 0 0 Z " fill="#227ED4" transform="translate(200,90)"/>
<path d="M0 0 C0.99 0 1.98 0 3 0 C3 0.66 3 1.32 3 2 C4.32 2 5.64 2 7 2 C7 1.34 7 0.68 7 0 C9.64 0.33 12.28 0.66 15 1 C15 1.99 15 2.98 15 4 C15.66 4 16.32 4 17 4 C17.33 5.65 17.66 7.3 18 9 C17.01 9 16.02 9 15 9 C15 9.99 15 10.98 15 12 C12.04335481 13.4783226 9.25770263 13.06032783 6 13 C6 12.34 6 11.68 6 11 C9.465 10.505 9.465 10.505 13 10 C13 8.68 13 7.36 13 6 C12.39671875 5.95101562 11.7934375 5.90203125 11.171875 5.8515625 C9.97304688 5.73941406 9.97304688 5.73941406 8.75 5.625 C7.96109375 5.55539063 7.1721875 5.48578125 6.359375 5.4140625 C3.914123 4.98492887 2.15163097 4.21399362 0 3 C0 2.01 0 1.02 0 0 Z " fill="#2253E6" transform="translate(47,96)"/>
<path d="M0 0 C0.33 0 0.66 0 1 0 C1 4.95 1 9.9 1 15 C-0.98 15 -2.96 15 -5 15 C-5.33 13.02 -5.66 11.04 -6 9 C-6.99 10.98 -7.98 12.96 -9 15 C-11.64 15 -14.28 15 -17 15 C-17.33 13.68 -17.66 12.36 -18 11 C-17.67 11.66 -17.34 12.32 -17 13 C-14.36 13 -11.72 13 -9 13 C-8.67 10.69 -8.34 8.38 -8 6 C-5.625 4.9375 -5.625 4.9375 -3 4 C-2.34 4.33 -1.68 4.66 -1 5 C-0.67 3.35 -0.34 1.7 0 0 Z " fill="#324EB2" transform="translate(26,95)"/>
<path d="M0 0 C0.33 0 0.66 0 1 0 C0.67 2.97 0.34 5.94 0 9 C-0.99 9.33 -1.98 9.66 -3 10 C-3 10.99 -3 11.98 -3 13 C-2.34 13 -1.68 13 -1 13 C-1 16.96 -1 20.92 -1 25 C0.65 25 2.3 25 4 25 C4 22.36 4 19.72 4 17 C4.33 17 4.66 17 5 17 C5.02689216 18.47906892 5.04634621 19.95827483 5.0625 21.4375 C5.07410156 22.26121094 5.08570313 23.08492187 5.09765625 23.93359375 C5 26 5 26 4 27 C1.5 27.125 1.5 27.125 -1 27 C-3.12579497 24.87420503 -2.44671369 20.34787605 -2.62109375 17.46875 C-2.74613281 16.6540625 -2.87117188 15.839375 -3 15 C-3.66 14.67 -4.32 14.34 -5 14 C-4.79375 14.5775 -4.5875 15.155 -4.375 15.75 C-4 18 -4 18 -6 22 C-6.33 17.38 -6.66 12.76 -7 8 C-13.33969734 5.86812149 -13.33969734 5.86812149 -19 8 C-17 5 -17 5 -13.6875 4.125 C-9.62121564 3.98715985 -8.13997902 4.50648725 -5 7 C-4.67 7.66 -4.34 8.32 -4 9 C-3.34 9 -2.68 9 -2 9 C-1.855625 7.700625 -1.71125 6.40125 -1.5625 5.0625 C-1.125 1.125 -1.125 1.125 0 0 Z " fill="#3C74B9" transform="translate(165,84)"/>
<path d="M0 0 C0.680625 0.07863281 1.36125 0.15726562 2.0625 0.23828125 C4 0.6875 4 0.6875 7 2.6875 C7.6875 6.3125 7.6875 6.3125 8 9.6875 C7.01 9.6875 6.02 9.6875 5 9.6875 C4.67 8.3675 4.34 7.0475 4 5.6875 C3.31292969 5.6875 2.62585938 5.6875 1.91796875 5.6875 C-1.72135417 5.6875 -5.36067708 5.6875 -9 5.6875 C-9.33 5.0275 -9.66 4.3675 -10 3.6875 C-6.9261031 0.32085101 -4.51028886 -0.57232832 0 0 Z " fill="#0EA8E1" transform="translate(109,83.3125)"/>
<path d="M0 0 C1.65 0 3.3 0 5 0 C5.33 2.31 5.66 4.62 6 7 C6.66 7 7.32 7 8 7 C8.66 8.98 9.32 10.96 10 13 C6.7 12.67 3.4 12.34 0 12 C0 8.04 0 4.08 0 0 Z " fill="#147DED" transform="translate(0,85)"/>
<path d="M0 0 C0.886875 0.10699219 1.77375 0.21398437 2.6875 0.32421875 C4.0178125 0.47310547 4.0178125 0.47310547 5.375 0.625 C7.6875 1.01171875 7.6875 1.01171875 9.6875 2.01171875 C10.3125 4.57421875 10.3125 4.57421875 10.6875 7.01171875 C6.6875 7.01171875 6.6875 7.01171875 5.125 5.51171875 C4.650625 5.01671875 4.17625 4.52171875 3.6875 4.01171875 C2.6975 4.01171875 1.7075 4.01171875 0.6875 4.01171875 C0.605 4.79546875 0.5225 5.57921875 0.4375 6.38671875 C-0.3125 9.01171875 -0.3125 9.01171875 -2.359375 10.17578125 C-3.32617188 10.58957031 -3.32617188 10.58957031 -4.3125 11.01171875 C-4.36649736 9.55378991 -4.40529177 8.09529163 -4.4375 6.63671875 C-4.47230469 5.41855469 -4.47230469 5.41855469 -4.5078125 4.17578125 C-4.21856015 0.97086516 -3.21404103 0.01628737 0 0 Z " fill="#2094D7" transform="translate(132.3125,87.98828125)"/>
<path d="M0 0 C0.99 0.33 1.98 0.66 3 1 C3 2.32 3 3.64 3 5 C2.34 5 1.68 5 1 5 C1.66 6.65 2.32 8.3 3 10 C7.12973628 9.43260132 7.12973628 9.43260132 11 8 C10.67 9.65 10.34 11.3 10 13 C5.83861737 13.08159574 2.0527516 12.98248524 -2 12 C-2.33 10.68 -2.66 9.36 -3 8 C-4.65 7.67 -6.3 7.34 -8 7 C-4.25 5 -4.25 5 -2 5 C-1.34 3.35 -0.68 1.7 0 0 Z " fill="#2941ED" transform="translate(112,102)"/>
<path d="M0 0 C2.03684712 4.07369424 2.0257259 6.58937864 1 11 C0.34 11 -0.32 11 -1 11 C-1.33 9.68 -1.66 8.36 -2 7 C-3.97536745 7.34786708 -3.97536745 7.34786708 -6 8 C-6.33 8.66 -6.66 9.32 -7 10 C-7.99 9.67 -8.98 9.34 -10 9 C-9.34 9 -8.68 9 -8 9 C-8.33 8.01 -8.66 7.02 -9 6 C-8.5625 3.3125 -8.5625 3.3125 -8 1 C-5.10765685 0.17361624 -3.11257569 0 0 0 Z " fill="#2350E1" transform="translate(194,97)"/>
<path d="M0 0 C1.65 0.33 3.3 0.66 5 1 C4.4375 2.9375 4.4375 2.9375 3 5 C-0.625 5.75 -0.625 5.75 -4 6 C-4 7.32 -4 8.64 -4 10 C-4.33 10.66 -4.66 11.32 -5 12 C-6.65 11.67 -8.3 11.34 -10 11 C-9.47784461 7.2404812 -8.82726947 4.63228537 -6 2 C-2.8125 1.75 -2.8125 1.75 0 2 C0 1.34 0 0.68 0 0 Z " fill="#2C51E8" transform="translate(154,96)"/>
<path d="M0 0 C0.33 0.99 0.66 1.98 1 3 C1.33 3.33 1.66 3.66 2 4 C3.67542976 3.71395102 5.34385343 3.38218767 7 3 C7.33 4.32 7.66 5.64 8 7 C9.32 5.35 10.64 3.7 12 2 C15 6.625 15 6.625 15 10 C12.69 9.67 10.38 9.34 8 9 C7.67 8.01 7.34 7.02 7 6 C6.01 6 5.02 6 4 6 C3.67 6.66 3.34 7.32 3 8 C1.02 8 -0.96 8 -3 8 C-2.45276317 4.62537285 -1.9451 2.91765 0 0 Z " fill="#415BCA" transform="translate(185,101)"/>
<path d="M0 0 C2.64 0 5.28 0 8 0 C8 1.65 8 3.3 8 5 C7.67 3.68 7.34 2.36 7 1 C4.57080135 0.86559222 4.57080135 0.86559222 2 2 C0.76003278 4.71838967 -0.1403479 7.16849056 -1 10 C-1.55216903 11.50383364 -2.1142025 13.00409351 -2.6875 14.5 C-3.3371875 16.2325 -3.3371875 16.2325 -4 18 C-5.32 18 -6.64 18 -8 18 C-8.99 14.7 -9.98 11.4 -11 8 C-11.66 8 -12.32 8 -13 8 C-13.33 6.02 -13.66 4.04 -14 2 C-13.34 2 -12.68 2 -12 2 C-11.16013916 3.93467942 -10.32831973 5.87285129 -9.5 7.8125 C-8.80390625 9.43091797 -8.80390625 9.43091797 -8.09375 11.08203125 C-7 14 -7 14 -7 17 C-6.34 17 -5.68 17 -5 17 C-4.87753906 16.30519531 -4.75507813 15.61039063 -4.62890625 14.89453125 C-3.9414143 11.73036021 -2.98142199 8.75191616 -1.9375 5.6875 C-1.57527344 4.61886719 -1.21304687 3.55023438 -0.83984375 2.44921875 C-0.56269531 1.64097656 -0.28554688 0.83273438 0 0 Z " fill="#3B82B9" transform="translate(19,84)"/>
<path d="M0 0 C1.629375 0.144375 3.25875 0.28875 4.9375 0.4375 C6.31228516 0.55931641 6.31228516 0.55931641 7.71484375 0.68359375 C10 1 10 1 11 2 C11.04063832 3.66617115 11.042721 5.33388095 11 7 C10.34 6.34 9.68 5.68 9 5 C7.68 5 6.36 5 5 5 C4.67 6.65 4.34 8.3 4 10 C2.68 10.33 1.36 10.66 0 11 C0 7.37 0 3.74 0 0 Z " fill="#2256EE" transform="translate(0,97)"/>
<path d="M0 0 C1.5 1.3125 1.5 1.3125 3 3 C3 10 3 17 3 24 C1.02 24.33 -0.96 24.66 -3 25 C-3.08724706 21.5834948 -3.14047325 18.16727687 -3.1875 14.75 C-3.21263672 13.78191406 -3.23777344 12.81382813 -3.26367188 11.81640625 C-3.27333984 10.88183594 -3.28300781 9.94726562 -3.29296875 8.984375 C-3.3086792 8.12553711 -3.32438965 7.26669922 -3.34057617 6.38183594 C-2.93095949 3.51716184 -1.886136 2.14936836 0 0 Z M-2 5 C-2 10.94 -2 16.88 -2 23 C-0.68 23 0.64 23 2 23 C2 17.39 2 11.78 2 6 C0.68 5.67 -0.64 5.34 -2 5 Z " fill="#3454A0" transform="translate(90,86)"/>
<path d="M0 0 C3.125 0.5 3.125 0.5 6 2.5 C8.85488584 6.53042707 8.53540319 8.65724241 8.125 13.5 C5.155 13.005 5.155 13.005 2.125 12.5 C2.00125 11.88125 1.8775 11.2625 1.75 10.625 C1.25302644 8.30879168 1.25302644 8.30879168 -0.875 6.5 C0.775 6.17 2.425 5.84 4.125 5.5 C4.125 4.84 4.125 4.18 4.125 3.5 C0.825 3.5 -2.475 3.5 -5.875 3.5 C-2.875 0.5 -2.875 0.5 0 0 Z " fill="#2EA1C6" transform="translate(171.875,80.5)"/>
<path d="M0 0 C1 1 1 1 1.0625 3.5625 C1.041875 4.366875 1.02125 5.17125 1 6 C0.13375 5.67 -0.7325 5.34 -1.625 5 C-4.93288146 3.8348103 -4.93288146 3.8348103 -8.25 4.0625 C-9.61125 4.0315625 -9.61125 4.0315625 -11 4 C-11.66 3.01 -12.32 2.02 -13 1 C-7.87036999 -1.66740761 -5.50430494 -2.62109759 0 0 Z " fill="#1A8AE3" transform="translate(158,91)"/>
<path d="M0 0 C3 1 3 1 4.1875 2.75 C5.10819096 5.29960574 5.14948718 7.30923081 5 10 C2.69 10.66 0.38 11.32 -2 12 C-2.17835515 7.45194365 -1.99785435 4.1205746 0 0 Z " fill="#565E83" transform="translate(122,93)"/>
<path d="M0 0 C1.32 0.33 2.64 0.66 4 1 C3.67 6.28 3.34 11.56 3 17 C2.01 16.67 1.02 16.34 0 16 C0 10.72 0 5.44 0 0 Z " fill="#264EE3" transform="translate(175,92)"/>
<path d="M0 0 C2.33294775 -0.04241723 4.66702567 -0.04092937 7 0 C8 1 8 1 8 6 C4.7 6.33 1.4 6.66 -2 7 C-1.34 4.69 -0.68 2.38 0 0 Z " fill="#1775F2" transform="translate(17,94)"/>
<path d="M0 0 C1.65 0 3.3 0 5 0 C5.33 2.97 5.66 5.94 6 9 C1.25 10.125 1.25 10.125 -1 9 C-0.67 6.03 -0.34 3.06 0 0 Z " fill="#364EC4" transform="translate(72,101)"/>
<path d="M0 0 C-0.33 3.3 -0.66 6.6 -1 10 C-2.65 10 -4.3 10 -6 10 C-6 7.03 -6 4.06 -6 1 C-3 0 -3 0 0 0 Z " fill="#2A47C9" transform="translate(170,99)"/>
<path d="M0 0 C5.53846154 -0.36923077 5.53846154 -0.36923077 7.875 1.5 C8.24625 1.995 8.6175 2.49 9 3 C8.67 3.99 8.34 4.98 8 6 C5.66705225 6.04241723 3.33297433 6.04092937 1 6 C0 5 0 5 -0.0625 2.4375 C-0.041875 1.633125 -0.02125 0.82875 0 0 Z " fill="#44909D" transform="translate(77,85)"/>
<path d="M0 0 C0.99 0 1.98 0 3 0 C3 0.66 3 1.32 3 2 C4.32 2 5.64 2 7 2 C7 1.34 7 0.68 7 0 C9.64 0.33 12.28 0.66 15 1 C15 1.33 15 1.66 15 2 C14.195625 2.12375 13.39125 2.2475 12.5625 2.375 C11.2940625 2.684375 11.2940625 2.684375 10 3 C9.67 3.66 9.34 4.32 9 5 C9.66 5.33 10.32 5.66 11 6 C6.94393835 5.53199289 3.53411321 5.12046792 0 3 C0 2.01 0 1.02 0 0 Z " fill="#2962C2" transform="translate(47,96)"/>
<path d="M0 0 C1.34177018 0.67088509 2.67519866 1.35869929 4 2.0625 C5.93368221 3.14147796 5.93368221 3.14147796 8 3 C7.67 3.928125 7.34 4.85625 7 5.8125 C5.85032996 8.92029291 5.85032996 8.92029291 6 12 C5.34 12 4.68 12 4 12 C3.13624104 10.38007835 2.28424146 8.75388139 1.4375 7.125 C0.72400391 5.76761719 0.72400391 5.76761719 -0.00390625 4.3828125 C-0.33261719 3.59648438 -0.66132813 2.81015625 -1 2 C-0.67 1.34 -0.34 0.68 0 0 Z " fill="#2546EE" transform="translate(32,97)"/>
<path d="M0 0 C2.31 0.33 4.62 0.66 7 1 C6.67 2.98 6.34 4.96 6 7 C5.34 7 4.68 7 4 7 C3.34 7.66 2.68 8.32 2 9 C1.34 8.01 0.68 7.02 0 6 C-0.66 6.66 -1.32 7.32 -2 8 C-2.33 7.01 -2.66 6.02 -3 5 C-2.34 5 -1.68 5 -1 5 C-0.67 3.35 -0.34 1.7 0 0 Z " fill="#2B89D6" transform="translate(27,89)"/>
<path d="M0 0 C0.33 0 0.66 0 1 0 C1 3.96 1 7.92 1 12 C-0.32 12 -1.64 12 -3 12 C-3 9.36 -3 6.72 -3 4 C-3.66 3.67 -4.32 3.34 -5 3 C-4.01 2.67 -3.02 2.34 -2 2 C-1.34 2.33 -0.68 2.66 0 3 C0 2.01 0 1.02 0 0 Z " fill="#264BDD" transform="translate(25,97)"/>
<path d="M0 0 C2.64 0 5.28 0 8 0 C7.67 1.65 7.34 3.3 7 5 C5.1875 5.625 5.1875 5.625 3 6 C2.01 5.34 1.02 4.68 0 4 C0 2.68 0 1.36 0 0 Z " fill="#2199BB" transform="translate(64,85)"/>
<path d="M0 0 C0.66 0 1.32 0 2 0 C2 3.63 2 7.26 2 11 C0.68 10.67 -0.64 10.34 -2 10 C-2.1953125 3.9453125 -2.1953125 3.9453125 -2 2 C-1.34 1.34 -0.68 0.68 0 0 Z " fill="#284FE0" transform="translate(130,97)"/>
<path d="M0 0 C0.78375 0.04125 1.5675 0.0825 2.375 0.125 C2.94138908 4.93930721 1.20061627 7.32807814 -1.625 11.125 C-2.285 10.795 -2.945 10.465 -3.625 10.125 C-3.625 9.465 -3.625 8.805 -3.625 8.125 C-2.965 8.125 -2.305 8.125 -1.625 8.125 C-2.19844937 5.25775314 -2.4864515 4.2635485 -4.625 2.125 C-2.625 0.125 -2.625 0.125 0 0 Z " fill="#475EC4" transform="translate(116.625,98.875)"/>
<path d="M0 0 C1.65 0 3.3 0 5 0 C5.33 2.31 5.66 4.62 6 7 C4.02 7 2.04 7 0 7 C0 4.69 0 2.38 0 0 Z " fill="#0C9BE0" transform="translate(0,85)"/>
<path d="M0 0 C2 1.5625 2 1.5625 3 3 C-0.07322544 3.91058531 -2.80097361 4.08886184 -6 4 C-5.67 3.34 -5.34 2.68 -5 2 C-7.64 2 -10.28 2 -13 2 C-9.13517222 -1.86482778 -4.95302263 -1.20729927 0 0 Z " fill="#23A2CD" transform="translate(113,84)"/>
<path d="M0 0 C1.32 0 2.64 0 4 0 C4.33 1.65 4.66 3.3 5 5 C4.34 5 3.68 5 3 5 C2.67 6.32 2.34 7.64 2 9 C0.02 9 -1.96 9 -4 9 C-3.67 8.01 -3.34 7.02 -3 6 C-2.01 6 -1.02 6 0 6 C0 4.02 0 2.04 0 0 Z " fill="#2443CB" transform="translate(4,101)"/>
<path d="M0 0 C0.99 1.32 1.98 2.64 3 4 C1.1875 6.5 1.1875 6.5 -1 9 C-1.99 9 -2.98 9 -4 9 C-4 8.01 -4 7.02 -4 6 C-4.66 6 -5.32 6 -6 6 C-6 5.01 -6 4.02 -6 3 C-5.195625 2.87625 -4.39125 2.7525 -3.5625 2.625 C-2.716875 2.41875 -1.87125 2.2125 -1 2 C-0.67 1.34 -0.34 0.68 0 0 Z " fill="#1975E7" transform="translate(168,91)"/>
<path d="M0 0 C0.33 0 0.66 0 1 0 C0.51669316 6.52464229 0.51669316 6.52464229 -1.5625 8.4375 C-6.12731132 9.490918 -10.52172215 9.49275928 -15 8 C-15 7.34 -15 6.68 -15 6 C-13.73542969 6.03480469 -13.73542969 6.03480469 -12.4453125 6.0703125 C-11.34960938 6.08835937 -10.25390625 6.10640625 -9.125 6.125 C-8.03445312 6.14820312 -6.94390625 6.17140625 -5.8203125 6.1953125 C-2.8628949 6.30060534 -2.8628949 6.30060534 -1 4 C-0.3574765 1.93125966 -0.3574765 1.93125966 0 0 Z " fill="#3745B8" transform="translate(125,108)"/>
<path d="M0 0 C0.66 0.66 1.32 1.32 2 2 C1.61233695 5.58588324 0.41433748 8.69987921 -1 12 C-0.01 12 0.98 12 2 12 C2.66 10.35 3.32 8.7 4 7 C5 10 5 10 4.0625 12.1875 C3.5365625 13.0846875 3.5365625 13.0846875 3 14 C1.02 14 -0.96 14 -3 14 C-2.28547412 9.23649415 -1.20465156 4.65798604 0 0 Z " fill="#3245AF" transform="translate(33,104)"/>
<path d="M0 0 C1.11375 0.3403125 1.11375 0.3403125 2.25 0.6875 C1.63245741 2.00352523 1.00571258 3.31523556 0.375 4.625 C0.02695313 5.35589844 -0.32109375 6.08679688 -0.6796875 6.83984375 C-1.75 8.6875 -1.75 8.6875 -3.75 9.6875 C-3.42 7.7075 -3.09 5.7275 -2.75 3.6875 C-4.07 3.3575 -5.39 3.0275 -6.75 2.6875 C-4.29511132 0.41445492 -3.41240272 -0.38777304 0 0 Z " fill="#4590C7" transform="translate(197.75,89.3125)"/>
<path d="M0 0 C1.89213369 2.38573379 3.02391783 4.07175348 4 7 C3.67 7.66 3.34 8.32 3 9 C1.35 9 -0.3 9 -2 9 C-3 6 -3 6 -1.5625 2.8125 C-1.046875 1.884375 -0.53125 0.95625 0 0 Z " fill="#B0914E" transform="translate(74,92)"/>
<path d="M0 0 C-0.495 0.433125 -0.99 0.86625 -1.5 1.3125 C-3.33218192 2.99740483 -3.33218192 2.99740483 -3 6 C-4.32 6 -5.64 6 -7 6 C-7 5.34 -7 4.68 -7 4 C-7.99 4 -8.98 4 -10 4 C-10 3.01 -10 2.02 -10 1 C-6.78548731 -0.60725635 -3.56387464 -0.05748185 0 0 Z " fill="#197BDE" transform="translate(57,92)"/>
<path d="M0 0 C1.65 0.33 3.3 0.66 5 1 C4.34 2.32 3.68 3.64 3 5 C0.69 5 -1.62 5 -4 5 C-4 4.01 -4 3.02 -4 2 C-2.68 2 -1.36 2 0 2 C0 1.34 0 0.68 0 0 Z " fill="#1D62E6" transform="translate(154,96)"/>
<path d="M0 0 C0.33 0.66 0.66 1.32 1 2 C2.98 1.67 4.96 1.34 7 1 C7 2.32 7 3.64 7 5 C4.36 5 1.72 5 -1 5 C-0.67 3.35 -0.34 1.7 0 0 Z " fill="#1291E1" transform="translate(19,89)"/>
<path d="M0 0 C1.98 0 3.96 0 6 0 C6 0.33 6 0.66 6 1 C4.35 1.33 2.7 1.66 1 2 C1 2.66 1 3.32 1 4 C1.99 4.33 2.98 4.66 4 5 C3.67 6.32 3.34 7.64 3 9 C2.34 8.34 1.68 7.68 1 7 C-0.98 7.99 -0.98 7.99 -3 9 C-2.01 6.03 -1.02 3.06 0 0 Z " fill="#317CC7" transform="translate(40,90)"/>
<path d="M0 0 C0.5775 0.165 1.155 0.33 1.75 0.5 C4.26664369 1.14462031 4.26664369 1.14462031 8 1 C10.25 2.5 10.25 2.5 12 4 C11.67 5.32 11.34 6.64 11 8 C10.649375 7.566875 10.29875 7.13375 9.9375 6.6875 C7.27372911 4.36744148 4.23212486 3.37664577 1 2 C0.67 1.34 0.34 0.68 0 0 Z " fill="#2E44C8" transform="translate(98,106)"/>
<path d="M0 0 C0 0.99 0 1.98 0 3 C-0.66 3.66 -1.32 4.32 -2 5 C-2.16677282 8.58343976 -2.16677282 8.58343976 -2 12 C-2.66 12 -3.32 12 -4 12 C-5.25 4.375 -5.25 4.375 -3 1 C-2.01 0.67 -1.02 0.34 0 0 Z " fill="#415CBE" transform="translate(147,98)"/>
<path d="M0 0 C1.32 0.66 2.64 1.32 4 2 C4.33663062 5.70293685 4.47736015 7.39534381 2.125 10.375 C0 12 0 12 -2 12 C-2 11.34 -2 10.68 -2 10 C-1.34 10 -0.68 10 0 10 C0 9.01 0 8.02 0 7 C0.99 7 1.98 7 3 7 C2.67 5.35 2.34 3.7 2 2 C1.34 2 0.68 2 0 2 C0 1.34 0 0.68 0 0 Z " fill="#3851BF" transform="translate(62,98)"/>
<path d="M0 0 C1.98 0 3.96 0 6 0 C6.33 0.66 6.66 1.32 7 2 C6.01 2 5.02 2 4 2 C4.50603992 4.16874252 4.99983813 5.99967627 6 8 C2.83884224 6.63016497 2.0072908 6.0109362 0 3 C0 2.01 0 1.02 0 0 Z " fill="#354FB6" transform="translate(46,102)"/>
<path d="M0 0 C2 2 2 2 2.1953125 3.9453125 C2.13020833 5.96354167 2.06510417 7.98177083 2 10 C-0.97 9.505 -0.97 9.505 -4 9 C-4 7.68 -4 6.36 -4 5 C-2.68 5 -1.36 5 0 5 C0 3.35 0 1.7 0 0 Z " fill="#2B8DB7" transform="translate(178,84)"/>
<path d="M0 0 C4.9399341 -0.29058436 8.09825673 -0.21320034 12 3 C12.8125 5.1875 12.8125 5.1875 13 7 C12.01 7 11.02 7 10 7 C10 5.68 10 4.36 10 3 C8.906875 3.061875 7.81375 3.12375 6.6875 3.1875 C3 3 3 3 1.0625 1.5 C0.5365625 0.7575 0.5365625 0.7575 0 0 Z " fill="#2F90C2" transform="translate(132,87)"/>
<path d="M0 0 C0.99 0.33 1.98 0.66 3 1 C3.33 2.98 3.66 4.96 4 7 C3.67 6.34 3.34 5.68 3 5 C-0.16666667 6.83333333 -0.16666667 6.83333333 -2 10 C-3.39195915 5.82412255 -1.82323219 3.86525224 0 0 Z " fill="#657651" transform="translate(73,83)"/>
<path d="M0 0 C1.65 0.33 3.3 0.66 5 1 C4.01 1.495 4.01 1.495 3 2 C2.34444881 4.52733235 2.34444881 4.52733235 2 7 C0.68 7.33 -0.64 7.66 -2 8 C-1.34 5.36 -0.68 2.72 0 0 Z " fill="#139BE2" transform="translate(166,86)"/>
<path d="M0 0 C0.33 0 0.66 0 1 0 C1 3.96 1 7.92 1 12 C-0.32 12 -1.64 12 -3 12 C-3 10.68 -3 9.36 -3 8 C-2.34 8 -1.68 8 -1 8 C-0.67 5.36 -0.34 2.72 0 0 Z " fill="#2A49D6" transform="translate(91,97)"/>
<path d="M0 0 C0.66 0 1.32 0 2 0 C2 1.65 2 3.3 2 5 C-1.3 5.33 -4.6 5.66 -8 6 C-7.34 4.68 -6.68 3.36 -6 2 C-5.34 2.33 -4.68 2.66 -4 3 C-1.88316159 2.10836423 -1.88316159 2.10836423 0 1 C0 0.67 0 0.34 0 0 Z " fill="#1D61E6" transform="translate(23,95)"/>
<path d="M0 0 C0.66 0.33 1.32 0.66 2 1 C1.67 2.32 1.34 3.64 1 5 C1.99 5 2.98 5 4 5 C4.33 5.99 4.66 6.98 5 8 C3.68 8.33 2.36 8.66 1 9 C1 9.66 1 10.32 1 11 C0.01 10.67 -0.98 10.34 -2 10 C-1.01 9.01 -0.02 8.02 1 7 C0.67 6.67 0.34 6.34 0 6 C-0.04080783 4.00041636 -0.04254356 1.99954746 0 0 Z " fill="#287BC6" transform="translate(169,88)"/>
<path d="M0 0 C0.33 0 0.66 0 1 0 C1 2.31 1 4.62 1 7 C0.67 6.01 0.34 5.02 0 4 C-3.3 4 -6.6 4 -10 4 C-7.24072656 1.24072656 -4.78845948 1.48216757 -1 1 C-0.67 0.67 -0.34 0.34 0 0 Z " fill="#214CD3" transform="translate(158,99)"/>
<path d="M0 0 C0.99 0.33 1.98 0.66 3 1 C3 2.98 3 4.96 3 7 C1.68 7 0.36 7 -1 7 C-0.67 4.69 -0.34 2.38 0 0 Z " fill="#6D634B" transform="translate(122,93)"/>
<path d="M0 0 C2.475 0.495 2.475 0.495 5 1 C5.33 2.65 5.66 4.3 6 6 C4.68 6 3.36 6 2 6 C0 3 0 3 0 0 Z " fill="#1092E6" transform="translate(137,89)"/>
<path d="M0 0 C0.89130413 2.6739124 1.47731534 5.23723823 2 8 C0.35 8 -1.3 8 -3 8 C-2.45276317 4.62537285 -1.9451 2.91765 0 0 Z " fill="#2A47C6" transform="translate(185,101)"/>
<path d="M0 0 C2 2 2 2 2 6 C-1.71599191 6.20086443 -2.77208445 6.1519437 -6 4 C-6 3.34 -6 2.68 -6 2 C-5.01 2 -4.02 2 -3 2 C-3 2.66 -3 3.32 -3 4 C-2.01 4 -1.02 4 0 4 C0 2.68 0 1.36 0 0 Z " fill="#3C89BA" transform="translate(63,90)"/>
<path d="M0 0 C2.33944736 0.28730055 4.6739143 0.61936779 7 1 C4 3 4 3 2 3 C1.34 3.66 0.68 4.32 0 5 C-0.99 5 -1.98 5 -3 5 C-1.125 1.125 -1.125 1.125 0 0 Z " fill="#189AE1" transform="translate(51,88)"/>
<path d="M0 0 C2.97 0.33 5.94 0.66 9 1 C9 1.66 9 2.32 9 3 C6.03 3 3.06 3 0 3 C0 2.01 0 1.02 0 0 Z " fill="#1863F7" transform="translate(0,97)"/>
<path d="M0 0 C-0.66 1.32 -1.32 2.64 -2 4 C-2.99 4 -3.98 4 -5 4 C-5.33 4.99 -5.66 5.98 -6 7 C-6 4.69 -6 2.38 -6 0 C-2.25 -1.125 -2.25 -1.125 0 0 Z " fill="#2068D2" transform="translate(102,95)"/>
<path d="M0 0 C0.66 0 1.32 0 2 0 C1.25 6.75 1.25 6.75 -1 9 C-1.625 5.625 -1.625 5.625 -2 2 C-1.34 1.34 -0.68 0.68 0 0 Z " fill="#2E49CC" transform="translate(39,102)"/>
<path d="M0 0 C1.32 0 2.64 0 4 0 C4 1.65 4 3.3 4 5 C2.68 5.33 1.36 5.66 0 6 C0 4.02 0 2.04 0 0 Z " fill="#2444F4" transform="translate(0,102)"/>
<path d="M0 0 C1.34177018 0.67088509 2.67519866 1.35869929 4 2.0625 C5.93368221 3.14147796 5.93368221 3.14147796 8 3 C7.67 3.99 7.34 4.98 7 6 C4.61435923 5.42415568 2.33317216 4.77772405 0 4 C-0.33 3.01 -0.66 2.02 -1 1 C-0.67 0.67 -0.34 0.34 0 0 Z " fill="#2157E5" transform="translate(32,97)"/>
<path d="M0 0 C1.32 0.33 2.64 0.66 4 1 C4 2.65 4 4.3 4 6 C2.68 5.67 1.36 5.34 0 5 C0 3.35 0 1.7 0 0 Z " fill="#2078E2" transform="translate(175,92)"/>
<path d="M0 0 C1.98 0 3.96 0 6 0 C5.67 1.32 5.34 2.64 5 4 C3.35 4 1.7 4 0 4 C0 2.68 0 1.36 0 0 Z " fill="#22A0CB" transform="translate(79,86)"/>
<path d="M0 0 C0.33 0 0.66 0 1 0 C0.88637738 1.4800841 0.75877092 2.95910074 0.625 4.4375 C0.52058594 5.67306641 0.52058594 5.67306641 0.4140625 6.93359375 C0.27742187 7.61550781 0.14078125 8.29742187 0 9 C-0.99 9.495 -0.99 9.495 -2 10 C-1.85950482 8.52031676 -1.71245174 7.04125484 -1.5625 5.5625 C-1.48128906 4.73878906 -1.40007812 3.91507812 -1.31640625 3.06640625 C-1 1 -1 1 0 0 Z " fill="#2D94C7" transform="translate(165,84)"/>
<path d="M0 0 C0.33 1.98 0.66 3.96 1 6 C0.01 6 -0.98 6 -2 6 C-2.66 4.35 -3.32 2.7 -4 1 C-2 0 -2 0 0 0 Z " fill="#109BE3" transform="translate(116,87)"/>
<path d="M0 0 C0.66 0.33 1.32 0.66 2 1 C2 1.66 2 2.32 2 3 C-0.95664519 4.4783226 -3.74229737 4.06032783 -7 4 C-7 3.34 -7 2.68 -7 2 C-5.824375 1.7834375 -5.824375 1.7834375 -4.625 1.5625 C-2.03578982 1.12201075 -2.03578982 1.12201075 0 0 Z " fill="#2845ED" transform="translate(60,105)"/>
<path d="M0 0 C0 2.31 0 4.62 0 7 C-0.99 7 -1.98 7 -3 7 C-3 5.02 -3 3.04 -3 1 C-1 0 -1 0 0 0 Z " fill="#274DEB" transform="translate(168,99)"/>
<path d="M0 0 C0.66 0 1.32 0 2 0 C5.07692308 5.41538462 5.07692308 5.41538462 4.6875 8.375 C4.460625 8.91125 4.23375 9.4475 4 10 C3.67 8.68 3.34 7.36 3 6 C2.34 6 1.68 6 1 6 C0.67 4.02 0.34 2.04 0 0 Z " fill="#2383BE" transform="translate(5,86)"/>
<path d="M0 0 C0.99 0.99 1.98 1.98 3 3 C2.67 3.99 2.34 4.98 2 6 C0.35 5.67 -1.3 5.34 -3 5 C-2.01 3.35 -1.02 1.7 0 0 Z " fill="#6C928E" transform="translate(90,86)"/>
<path d="M0 0 C1.32 0 2.64 0 4 0 C4.33 1.65 4.66 3.3 5 5 C4.67 4.34 4.34 3.68 4 3 C3.01 3 2.02 3 1 3 C0.34 3.66 -0.32 4.32 -1 5 C-0.67 3.35 -0.34 1.7 0 0 Z " fill="#3B52C5" transform="translate(188,104)"/>
<path d="M0 0 C1.32 0.33 2.64 0.66 4 1 C4 2.65 4 4.3 4 6 C3.67 5.34 3.34 4.68 3 4 C2.34 4 1.68 4 1 4 C0.67 4.66 0.34 5.32 0 6 C0 4.02 0 2.04 0 0 Z " fill="#2682CB" transform="translate(88,91)"/>
<path d="M0 0 C3.3 0.33 6.6 0.66 10 1 C9.67 1.99 9.34 2.98 9 4 C5.65626525 3.44271087 2.96687001 2.64826111 0 1 C0 0.67 0 0.34 0 0 Z " fill="#328FDE" transform="translate(145,92)"/>
<path d="M0 0 C4.875 4.75 4.875 4.75 6 7 C4.35 7 2.7 7 1 7 C0.67 4.69 0.34 2.38 0 0 Z " fill="#203CE6" transform="translate(8,101)"/>
<path d="M0 0 C2.31 0 4.62 0 7 0 C6.67 0.99 6.34 1.98 6 3 C4.35 3 2.7 3 1 3 C0.67 2.01 0.34 1.02 0 0 Z " fill="#9F999B" transform="translate(71,98)"/>
<path d="M0 0 C1.65 0 3.3 0 5 0 C4 3 4 3 1.9375 4.1875 C1.298125 4.455625 0.65875 4.72375 0 5 C0 3.35 0 1.7 0 0 Z " fill="#1E74DC" transform="translate(128,94)"/>
<path d="" fill="#99B38C" transform="translate(0,0)"/>
</svg>
